# xmcd
#
# Track frame offsets:
#	150
#	10655
#	19732
#	27217
#	37357
#	52652
#	68962
#	81672
#	95652
#	106660
#	116835
#	129550
#	136640
#	147537
#	157175
#	171567
#	176697
#	191555
#	204370
#	223195
#	241927
#	262025
#
# Disc length: 3649 seconds
#
# Revision: 1
# Processed by: cddbd v1.5.1PL0 Copyright (c) Steve Scherf et al.
# Submitted via: CDex 1.50Beta5
#
DISCID=470e3f16
DTITLE=チッコリーニ - BEST OF SATIE
DYEAR=1900
DGENRE=Classical
TTITLE0=4つのオジーブ 1
TTITLE1=4つのオジーブ 2
TTITLE2=4つのオジーブ 3
TTITLE3=4つのオジーブ 4
TTITLE4=3つのサラバンド 1
TTITLE5=3つのサラバンド 2
TTITLE6=3つのサラバンド 3
TTITLE7=3つのジムノペディ 1
TTITLE8=3つのジムノペディ 2
TTITLE9=3つのジムノペディ 3
TTITLE10=6つのグノシエンヌ 1
TTITLE11=6つのグノシエンヌ 2
TTITLE12=6つのグノシエンヌ 3
TTITLE13=6つのグノシエンヌ 4
TTITLE14=6つのグノシエンヌ 5
TTITLE15=6つのグノシエンヌ 6
TTITLE16=「星の息子」への前奏曲 1
TTITLE17=「星の息子」への前奏曲 2
TTITLE18=「星の息子」への前奏曲 3
TTITLE19=最初の思想とバラ十字会への鐘 1
TTITLE20=最初の思想とバラ十字会への鐘 2
TTITLE21=最初の思想とバラ十字会への鐘 3
EXTD=
EXTT0=
EXTT1=
EXTT2=
EXTT3=
EXTT4=
EXTT5=
EXTT6=
EXTT7=
EXTT8=
EXTT9=
EXTT10=
EXTT11=
EXTT12=
EXTT13=
EXTT14=
EXTT15=
EXTT16=
EXTT17=
EXTT18=
EXTT19=
EXTT20=
EXTT21=
PLAYORDER=
